# xmcd
#
# Track frame offsets:
#	150
#	21277
#	42962
#	57506
#	84391
#	103733
#	120801
#	137220
#	151358
#	165665
#	183681
#	198682
#	213902
#	228925
#	247692
#	264372
#	278193
#	301455
#	317905
#
# Disc length: 4487 seconds
#
# Revision: 0
# Processed by: cddbd v1.5.2PL0 Copyright (c) Steve Scherf et al.
# Submitted via: EasyCDDAExtractor 15.2.1.1
#
DISCID=07118513
DTITLE=Various Artist - R&B THE COLLECTION 2013 DISC TWO
DYEAR=2013
DGENRE=
TTITLE0=WILL.I.AM FEAT.JUSTIN BIEBER - #THATPOWER
TTITLE1=RIHANNA FEAT.KANYE WEST - DIAMONDS(REMIX)
TTITLE2=JAY SEAN - WHERE YOU ARE
TTITLE3=NAS FEAT.AMY WINEHOUSE - CHERRY WINE
TTITLE4=RICK ROSS - ASHAMED
TTITLE5=ARIANA GRANDE FEAT.MAC MILLER - THE WAY
TTITLE6=FAR EAST MOVEMONT FEAT.SIDNEY SAMSON - CHANGE YOUR LIFE
TTITLE7=SKYLAR GREY - C'MON LET ME RIDE(VALENTINO KHAN REMIX)
TTITLE8=TRINIDAD JAMES - ALL GOLD EVERYTHING
TTITLE9=AFROJACK FEAT.CHRIS BROWN - AS YOUR FRIEND
TTITLE10=NICOLE SHERZINGER - BOOMERANG
TTITLE11=FRANK OCEAN - THINKIN ABOUT YOU
TTITLE12=YOUNG JEEZY FEAT.2 CHAINZ - R.I.P.
TTITLE13=MINDLESS BEHAVIOR - ALL AROUND THE WORLD
TTITLE14=PRIYANKA CHOPRA FEAT.WILL.I.AM - IN MY CITY
TTITLE15=FRENCH MONTANA FEAT.NICKI MINAJ - FREAKS
TTITLE16=BIG SEAN FEAT.COMMON - SWITCH UP
TTITLE17=JESSIN WARE - SWEET TALK
TTITLE18=DROP CITY YACHA CLUB FEAT.JEREMIH - CRICKETS
EXTD=
EXTT0=
EXTT1=
EXTT2=
EXTT3=
EXTT4=
EXTT5=
EXTT6=
EXTT7=
EXTT8=
EXTT9=
EXTT10=
EXTT11=
EXTT12=
EXTT13=
EXTT14=
EXTT15=
EXTT16=
EXTT17=
EXTT18=
PLAYORDER=
